<?xml version="1.0" encoding="UTF-8"?><svg id="logo" xmlns="http://www.w3.org/2000/svg" viewBox="0 0 1000 1220"><path d="m472.1424,764.1509c85.3357,85.3339,85.3357,223.4892,0,308.8217l-82.2812,83.0274c-85.3357,85.3334-223.4864,85.3334-308.8221,0l-17.0373-17.0373c-85.3357-85.333-85.3357-223.4883,0-308.8208l4.6157-4.5388c37.7887-37.868,84.2849-66.0643,134.803-84.2917,109.652-39.3737,135.5213-85.5629,135.7118-131.3114-.1906-45.7485-26.0598-91.9377-135.7118-131.3114-50.5181-18.2274-97.0142-46.4237-134.803-84.2917l-4.6157-4.5388c-85.3357-85.3325-85.3357-223.4878,0-308.8208l17.0373-17.0373c85.3357-85.3334,223.4864-85.3334,308.8221,0l82.2812,83.0274c85.3357,85.3325,85.3357,223.4878,0,308.8217-42.6042,42.6078-63.9667,98.3684-64.0272,154.1509.0605,55.7825,21.423,111.543,64.0272,154.1509Zm296.1668-384.5664c-125.2033,0-265.3283,157.3644-265.3283,230.4155s140.1251,230.4155,265.3283,230.4155,231.6908-103.1458,231.6908-230.4155-106.5013-230.4155-231.6908-230.4155Z" style="fill:#ff5640;"/></svg>